<svg xmlns="http://www.w3.org/2000/svg" id="svg39" width="223" height="71" version="1.1">
  <defs id="defs7">
    <clipPath id="d">
      <path id="path4" fill="none" d="M312.39 82.79c0 13.53-10.98 24.5-24.51 24.5-13.53 0-24.5-10.98-24.5-24.51 0-13.53 10.97-24.5 24.51-24.5 13.53 0 24.51 10.97 24.51 24.51z"/>
    </clipPath>
    <style id="style2">
      .j{fill:#fff}.k{fill:#fbcbbd}
    </style>
  </defs>
  <path id="path15" fill="#005984" d="M197.54 69.59h-35.56c-13.26 0-26.44-6.38-26.52-25.31-.1-23.42 16.45-25.02 26.52-25.62H182l-10.76 10.85h-8.36c-6.38 0-13.46 1.4-13.66 14.76 0 12.46 6.68 14.56 15.06 14.76h33.24l.03 10.57zm-62.93 0h-11.97c-9.57 0-15.35-5.78-15.35-15.75V28.53h-9.27v-9.89h9.27V0h13.06v18.64h14.26v9.87h-14.26v20.94c0 4.88 1.39 9.87 5.78 9.87h8.48zm-39.6 0H75.67c-17.05 0-25.23-10.07-25.42-25.53 0-23.04 16.24-25.42 25.42-25.42h19.34v10.27H77.47c-8.88 0-12.46 2.29-12.46 10.07h30.01v10.47H64.8c0 7.28 2.19 9.97 12.57 9.97h17.64ZM47.56 41.47c0 22.63-8.97 28.12-28.81 28.12H0V58.42h16.95c12.86 0 15.66-5.58 15.95-20.14V0h14.66v41.48z"/>
  <path id="path17" fill="#d11242" d="M220.78 44.38c0 13.53-10.98 24.5-24.51 24.5-13.53 0-24.5-10.98-24.5-24.51 0-13.53 10.97-24.5 24.51-24.5 13.53 0 24.51 10.97 24.51 24.51z"/>
  <path id="path19" d="M214.23 57.49s-4.65 8.25-14.96 8.48v-1.58s7.38.34 14.96-6.9z" class="k"/>
  <g id="g23" clip-path="url(#d)" transform="translate(-91.61 -38.41)">
    <path id="path21" fill="#f79c88" d="M316.8 65.4c0 8.31-13.18 15.06-29.46 15.06s-29.46-6.74-29.46-15.06 13.18-15.06 29.46-15.06 29.46 6.74 29.46 15.06z"/>
  </g>
  <path id="path25" fill="none" stroke="#b30838" stroke-width="4.12" d="M220.78 44.38c0 13.53-10.98 24.5-24.51 24.5-13.53 0-24.5-10.98-24.5-24.51 0-13.53 10.97-24.5 24.51-24.5 13.53 0 24.51 10.97 24.51 24.51z"/>
  <path id="path27" d="M213.13 31.92c0 5.14-7.49 9.31-16.74 9.31-9.25 0-16.73-4.15-16.73-9.31s7.49-9.31 16.74-9.31c9.25 0 16.73 4.17 16.73 9.31z" class="k"/>
  <path id="path29" d="M186.89 27.65a1.28 1.28 0 0 1-1.59.84 1.28 1.28 0 0 1-.84-1.59 1.27 1.27 0 0 1 2.43.74v.02z" class="j"/>
  <path id="path31" d="M194.67 44.75c-.36.35-.84.55-1.34.55h-3.69c-.5-.07-.9-.44-1.01-.94v7.73c-.02.28.13.55.38.69.24.12.52.11.76-.02.39-.21.73-.49.99-.84l.16.06c-.16.71-.53 1.36-1.07 1.86-.49.43-1.13.65-1.78.63-.64.05-1.28-.17-1.75-.61-.49-.55-.73-1.27-.67-2v-8.57c-1.06-.19-2-.77-2.64-1.63h-.2v2.64h2.39v1.13h-2.39v4.39c.29-.38.47-.83.51-1.31.04-.53.06-1.1.06-2.04h1.87c0 .46-.03.93-.1 1.39-.07.55-.29 1.07-.63 1.51-.45.47-1.06.74-1.7.77v.61c.9-.14 1.78-.36 2.64-.65l.1.16a11.394 11.394 0 0 1-3.63 2.67c-1.39.62-2.85 1.09-4.33 1.43v-3.12c.57.02 1.7-.06 2.31-.12v-.98a2.74 2.74 0 0 1-1.66-.88c-.36-.47-.56-1.04-.57-1.63 0-.38-.02-.78-.02-1.22h1.84c-.02.53-.02 1.36.02 2.1.01.42.14.83.38 1.18V45.4h-2.19v-1.13h2.19v-2.64h-.22c-.68.78-1.56 1.35-2.55 1.65l-.06-.16c.89-1.27 1.13-2.84 1.17-4.47.02-.57.04-1.73.02-2.41h2.72v.45c.27-.16.55-.29.85-.38a2.68 2.68 0 0 1 1.95.08c.64.32 1.06.97 1.07 1.69.02.92.04 1.7.08 2.37.06 1.04.26 1.91.73 2.47v-6.6h2.98v.94c.21-.55.73-.92 1.32-.94h3.2c.54 0 1.06.21 1.44.59.38.35.6.83.61 1.34v5.33c-.02.43-.2.84-.52 1.14zm-12.36-6.38c0-.43-.12-.67-.32-.76a.742.742 0 0 0-.68.04c-.15.06-.28.15-.41.24-.02.9-.16 1.79-.43 2.64h2.07c-.12-.72-.2-1.44-.22-2.17zm9.93-.14a.714.714 0 0 0-.66-.76H188.65v2.75h3.6v-1.99zm0 3.12h-3.61v2.84h2.8c.49 0 .81-.31.81-.96zm3.64 13.26a8.693 8.693 0 0 1-3.97-2.02 6.25 6.25 0 0 1-1.66-2.39c-.51-1.28-.84-2.63-.99-4h2.94c.05.8.18 1.59.38 2.36.35-.67.51-1.43.48-2.18h2.51a3.9 3.9 0 0 1-.65 2.18 3.49 3.49 0 0 1-1.97 1.25c.26.87.65 1.69 1.16 2.45.53.81 1.15 1.55 1.87 2.2l-.09.14z" class="j"/>
  <path id="path33" d="M204.6 54.09a5.877 5.877 0 0 1-3.89-1.65c-1.02.9-2.24 1.57-3.55 1.95l-.08-.14c2.01-1.82 2.86-4.24 3.14-6.89.03-.21-.11-.4-.32-.43h-.82c-.38.02-.72-.2-.87-.55-.14-.37-.11-.79.08-1.13.55-.92 1.1-1.89 1.6-2.88 0-.08-.06-.22-.16-.22h-1.95v-1.13h4.38c.33.03.63.2.83.47.26.27.33.68.16 1.02a54.95 54.95 0 0 1-1.72 3.32h.79c.37-.02.72.15.93.45.19.31.25.68.19 1.04a9.76 9.76 0 0 1-1.82 4.41c.94.87 2.18 1.33 3.46 1.3 3.61.02 7.29.04 10.84 0v1.13c-2.8.01-8.41 0-11.23-.05zm-4.62-14.46c-.54-.35-.94-.88-1.13-1.49-.21-.66-.37-1.34-.46-2.02h3.2c-.04.95.06 1.9.31 2.81.07.5.41.92.89 1.08v.18c-.97 0-1.99-.04-2.8-.57zm15 12.24c-.46.36-1.05.51-1.62.41-.97-.12-1.51-.57-2.04-1.31l.12-.12c.19.17.43.26.69.26.26 0 .48-.21.49-.47v-2.51h-1.54v3.92h-2.75v-3.92h-1.48v4.2h-3.1V40.46h3.1v.91c.34-.62 1-.98 1.7-.94a7.697 7.697 0 0 1-3.34-2.24h3.75c.21.37.48.71.79 1 .58-.41 1.09-.9 1.54-1.45.08-.08-.04-.26-.12-.26h-7.15v-1.13h9.68c.5 0 .95.27 1.17.71.2.43.08.94-.3 1.22a10.78 10.78 0 0 1-3.59 1.82c.21.17.45.29.71.38h1.6c.58-.02 1.16.16 1.62.51.5.46.77 1.12.73 1.79v7.55c.03.58-.21 1.14-.65 1.52zm-6.67-10.26h-1.48v2.14h1.48zm0 3.28h-1.48v2.12h1.48zm4.29-2.49a.826.826 0 0 0-.79-.79h-.76v2.14h1.54V42.4Zm0 2.49h-1.54v2.12h1.54z" class="j"/>
</svg>
