<?xml version="1.0" standalone="no"?><!DOCTYPE svg PUBLIC "-//W3C//DTD SVG 1.1//EN" "http://www.w3.org/Graphics/SVG/1.1/DTD/svg11.dtd"><svg t="1691413029256" class="icon" viewBox="0 0 1024 1024" version="1.1" xmlns="http://www.w3.org/2000/svg" p-id="1395" xmlns:xlink="http://www.w3.org/1999/xlink" width="16" height="16"><path d="M355.949622 211.506297c59.324937 20.634761 116.070529 79.959698 116.070529 147.02267v515.869018c12.896725 0 28.372796 2.579345 41.269522 2.579345s28.372796 0 41.269521-2.579345v-515.869018c0-67.062972 56.745592-126.387909 110.911839-147.02267 7.738035-2.579345 10.31738-7.738035 10.31738-12.896725 0-7.738035-2.579345-12.896725-10.31738-18.055416-46.428212-20.634761-98.015113-33.531486-152.18136-33.531486-56.745592 0-108.332494 12.896725-152.181361 33.531486-7.738035 2.579345-10.31738 7.738035-10.31738 18.055416-5.15869 7.738035-2.579345 10.31738 5.15869 12.896725z" fill="#D7000F" p-id="1396"></path><path d="M415.274559 864.080605V389.481108c0-51.586902-28.372796-92.856423-69.642317-110.911838v557.138539c20.634761 12.896725 43.848866 20.634761 69.642317 28.372796zM675.788413 835.707809v-557.138539c-41.269521 18.055416-69.642317 61.904282-69.642317 110.911838v474.599497c23.214106-7.738035 49.007557-15.476071 69.642317-28.372796zM221.823678 446.2267c2.579345 0 7.738035 2.579345 7.738035 7.738036 7.738035 20.634761 23.214106 38.690176 46.428211 38.690176 7.738035 0 12.896725-2.579345 18.055416-7.738035v-260.513854c-90.277078 67.062972-147.02267 170.236776-147.02267 288.88665s56.745592 221.823678 141.86398 288.886649v-260.513853c-2.579345-2.579345-10.31738-7.738035-18.055416-7.738036-20.634761 0-38.690176 18.055416-46.428211 38.690177 0 2.579345-2.579345 7.738035-7.738036 7.738035s-2.579345-2.579345-7.738035-2.579345c-12.896725-18.055416-20.634761-38.690176-20.634761-61.904282s7.738035-46.428212 20.634761-61.904282c7.738035-5.15869 10.31738-7.738035 12.896726-7.738036zM848.604534 531.345088c-20.634761 0-38.690176 18.055416-46.428212 38.690176 0 2.579345-2.579345 7.738035-7.738035 7.738036s-2.579345-2.579345-7.738035-2.579345c-10.31738-18.055416-18.055416-38.690176-18.055416-61.904282s7.738035-46.428212 20.634761-61.904283c0 0 2.579345-2.579345 7.738035-2.579345 2.579345 0 7.738035 2.579345 7.738036 7.738036 7.738035 20.634761 23.214106 38.690176 46.428211 38.690176 10.31738 0 20.634761-7.738035 23.214106-18.055416-10.31738-100.594458-61.904282-188.292191-139.284635-247.617128v575.193955c72.221662-56.745592 121.229219-139.284635 136.70529-232.141058v-12.896726c-5.15869-20.634761-12.896725-28.372796-23.214106-28.372796z" fill="#D7000F" p-id="1397"></path></svg>