<?xml version="1.0" standalone="no"?><!DOCTYPE svg PUBLIC "-//W3C//DTD SVG 1.1//EN" "http://www.w3.org/Graphics/SVG/1.1/DTD/svg11.dtd"><svg t="1729592586282" class="icon" viewBox="0 0 1024 1024" version="1.1" xmlns="http://www.w3.org/2000/svg" p-id="10342" xmlns:xlink="http://www.w3.org/1999/xlink" width="16" height="16"><path d="M399.5 501.2l-32.1 35.5c-74.5-63.7-163.9-39-172.8 50.4-14.3 122.4 133.8 114.5 166.8 68.1l35.5 37.5c-35.5 40-152.5 92.3-239.4-9.9-67.6-112.5 0-240.4 152.5-235 45 11 73.7 28.8 89.5 53.4zM437.5 450.9h57.8v287.3h-57.8zM796.9 448.9h56.8v287.3h-56.8zM670 367.5l-62.2 27.6v56.8h-49.9v51.3l45.4 1v181.7c14.3 59.2 94.8 72.6 129.3 31.1l11.4-49.9c-32.1 33.6-66.6 34.6-79 8.9V505.7h62.2v-51.3H670v-86.9z" fill="#045DA4" p-id="10343"></path><path d="M398.5 405.5h71.1c99.2-103.7 262.6-104.7 353 0h70.1c-52.3-86.9-161.4-127.9-268-123.4-88.5 7.4-175.4 58.7-226.2 123.4z" fill="#D71718" p-id="10344"></path></svg>